<mxfile host="app.diagrams.net" agent="Mozilla/5.0 (Windows NT 10.0; Win64; x64; rv:134.0) Gecko/20100101 Firefox/134.0" version="25.0.3">
  <diagram id="C5RBs43oDa-KdzZeNtuy" name="Page-1">
    <mxGraphModel dx="1434" dy="1895" grid="1" gridSize="10" guides="1" tooltips="1" connect="1" arrows="1" fold="1" page="1" pageScale="1" pageWidth="827" pageHeight="1169" math="1" shadow="0">
      <root>
        <mxCell id="WIyWlLk6GJQsqaUBKTNV-0" />
        <mxCell id="WIyWlLk6GJQsqaUBKTNV-1" parent="WIyWlLk6GJQsqaUBKTNV-0" />
        <mxCell id="rZa_sODycS4ORoVSW2ID-73" value="Dataset Aquisition" style="rounded=1;whiteSpace=wrap;html=1;labelPosition=center;verticalLabelPosition=top;align=center;verticalAlign=bottom;arcSize=6;textDirection=ltr;fillColor=#dae8fc;strokeColor=#6c8ebf;" parent="WIyWlLk6GJQsqaUBKTNV-1" vertex="1">
          <mxGeometry x="310" y="-210" width="175" height="130" as="geometry" />
        </mxCell>
        <mxCell id="rZa_sODycS4ORoVSW2ID-123" value="Backend" style="rounded=1;whiteSpace=wrap;html=1;arcSize=5;align=center;labelPosition=center;verticalLabelPosition=top;verticalAlign=bottom;fillColor=#d5e8d4;strokeColor=#82b366;" parent="WIyWlLk6GJQsqaUBKTNV-1" vertex="1">
          <mxGeometry x="210" y="732.5" width="500" height="247.5" as="geometry" />
        </mxCell>
        <mxCell id="rZa_sODycS4ORoVSW2ID-9" value="Stratified 80/20 Dataset Split" style="rounded=1;whiteSpace=wrap;html=1;labelPosition=center;verticalLabelPosition=top;align=center;verticalAlign=bottom;arcSize=6;textDirection=ltr;fillColor=#dae8fc;strokeColor=#6c8ebf;" parent="WIyWlLk6GJQsqaUBKTNV-1" vertex="1">
          <mxGeometry x="290" y="-30" width="380" height="170" as="geometry" />
        </mxCell>
        <mxCell id="rZa_sODycS4ORoVSW2ID-6" value="Wikipedia" style="rounded=1;whiteSpace=wrap;html=1;dashed=1;dashPattern=8 8;" parent="WIyWlLk6GJQsqaUBKTNV-1" vertex="1">
          <mxGeometry x="760" y="740" width="120" height="60" as="geometry" />
        </mxCell>
        <mxCell id="rZa_sODycS4ORoVSW2ID-29" style="edgeStyle=orthogonalEdgeStyle;rounded=0;orthogonalLoop=1;jettySize=auto;html=1;exitX=0.5;exitY=1;exitDx=0;exitDy=0;" parent="WIyWlLk6GJQsqaUBKTNV-1" source="rZa_sODycS4ORoVSW2ID-11" target="rZa_sODycS4ORoVSW2ID-13" edge="1">
          <mxGeometry relative="1" as="geometry" />
        </mxCell>
        <mxCell id="YSozYTVfxayiFDIovwCb-0" style="edgeStyle=orthogonalEdgeStyle;rounded=0;orthogonalLoop=1;jettySize=auto;html=1;exitX=1;exitY=0.5;exitDx=0;exitDy=0;dashed=1;" parent="WIyWlLk6GJQsqaUBKTNV-1" source="rZa_sODycS4ORoVSW2ID-11" target="rZa_sODycS4ORoVSW2ID-16" edge="1">
          <mxGeometry relative="1" as="geometry">
            <Array as="points">
              <mxPoint x="690" y="55" />
            </Array>
          </mxGeometry>
        </mxCell>
        <mxCell id="rZa_sODycS4ORoVSW2ID-11" value="Calculate Approx. Class Distributions Post Augmentation" style="rounded=1;whiteSpace=wrap;html=1;labelPosition=center;verticalLabelPosition=middle;align=center;verticalAlign=top;" parent="WIyWlLk6GJQsqaUBKTNV-1" vertex="1">
          <mxGeometry x="310" y="40" width="340" height="30" as="geometry" />
        </mxCell>
        <mxCell id="rZa_sODycS4ORoVSW2ID-28" style="edgeStyle=orthogonalEdgeStyle;rounded=0;orthogonalLoop=1;jettySize=auto;html=1;exitX=0.5;exitY=1;exitDx=0;exitDy=0;entryX=0.5;entryY=0;entryDx=0;entryDy=0;" parent="WIyWlLk6GJQsqaUBKTNV-1" source="rZa_sODycS4ORoVSW2ID-12" target="rZa_sODycS4ORoVSW2ID-11" edge="1">
          <mxGeometry relative="1" as="geometry" />
        </mxCell>
        <mxCell id="rZa_sODycS4ORoVSW2ID-12" value="Count Class Occurrences in Raw Dataset" style="rounded=1;whiteSpace=wrap;html=1;" parent="WIyWlLk6GJQsqaUBKTNV-1" vertex="1">
          <mxGeometry x="310" y="-10" width="340" height="30" as="geometry" />
        </mxCell>
        <mxCell id="rZa_sODycS4ORoVSW2ID-13" value="Perform Stratified Split using Adjusted Distributions" style="rounded=1;whiteSpace=wrap;html=1;" parent="WIyWlLk6GJQsqaUBKTNV-1" vertex="1">
          <mxGeometry x="310" y="90" width="340" height="30" as="geometry" />
        </mxCell>
        <mxCell id="rZa_sODycS4ORoVSW2ID-16" value="&lt;br&gt;\[\text{Adjusted_Count}_i = \min\left\{&lt;br&gt;\begin{array}{l}&lt;br&gt;\text{MAX_AUGMENT} \times \text{Original_Count}_i \\&lt;br&gt;\max_{j \in \{1, \dots, N\}}(\text{Sample_Count}_j)&lt;br&gt;\end{array}&lt;br&gt;\right.\]&lt;div&gt;&lt;br&gt;&lt;/div&gt;&lt;div&gt;&lt;br/&gt;&lt;/div&gt;" style="text;html=1;align=center;verticalAlign=middle;whiteSpace=wrap;rounded=0;" parent="WIyWlLk6GJQsqaUBKTNV-1" vertex="1">
          <mxGeometry x="490" y="-120" width="410" height="70" as="geometry" />
        </mxCell>
        <mxCell id="rZa_sODycS4ORoVSW2ID-20" value="Preprocessing" style="rounded=1;whiteSpace=wrap;html=1;labelPosition=center;verticalLabelPosition=top;align=center;verticalAlign=bottom;arcSize=6;textDirection=ltr;fillColor=#e1d5e7;strokeColor=#9673a6;gradientColor=#F8CECC;gradientDirection=east;" parent="WIyWlLk6GJQsqaUBKTNV-1" vertex="1">
          <mxGeometry x="290" y="310" width="370" height="100" as="geometry" />
        </mxCell>
        <mxCell id="rZa_sODycS4ORoVSW2ID-21" value="Raw Train" style="shape=cylinder3;whiteSpace=wrap;html=1;boundedLbl=1;backgroundOutline=1;size=15;fillColor=#e1d5e7;strokeColor=#9673a6;" parent="WIyWlLk6GJQsqaUBKTNV-1" vertex="1">
          <mxGeometry x="330" y="190" width="70" height="80" as="geometry" />
        </mxCell>
        <mxCell id="rZa_sODycS4ORoVSW2ID-22" value="Raw Val" style="shape=cylinder3;whiteSpace=wrap;html=1;boundedLbl=1;backgroundOutline=1;size=15;fillColor=#f8cecc;strokeColor=#b85450;" parent="WIyWlLk6GJQsqaUBKTNV-1" vertex="1">
          <mxGeometry x="550" y="190" width="70" height="80" as="geometry" />
        </mxCell>
        <mxCell id="rZa_sODycS4ORoVSW2ID-39" style="edgeStyle=orthogonalEdgeStyle;rounded=0;orthogonalLoop=1;jettySize=auto;html=1;exitX=0.75;exitY=1;exitDx=0;exitDy=0;entryX=0.743;entryY=0.007;entryDx=0;entryDy=0;entryPerimeter=0;" parent="WIyWlLk6GJQsqaUBKTNV-1" edge="1">
          <mxGeometry relative="1" as="geometry">
            <mxPoint x="589.88" y="349.79" as="sourcePoint" />
            <mxPoint x="589.9300000000002" y="370.00000000000006" as="targetPoint" />
          </mxGeometry>
        </mxCell>
        <mxCell id="rZa_sODycS4ORoVSW2ID-23" value="Resizing to match Model Input" style="rounded=1;whiteSpace=wrap;html=1;fillStyle=solid;" parent="WIyWlLk6GJQsqaUBKTNV-1" vertex="1">
          <mxGeometry x="300" y="320" width="350" height="30" as="geometry" />
        </mxCell>
        <mxCell id="rZa_sODycS4ORoVSW2ID-24" value="Normalize Pixel Values" style="rounded=1;whiteSpace=wrap;html=1;" parent="WIyWlLk6GJQsqaUBKTNV-1" vertex="1">
          <mxGeometry x="300" y="370" width="350" height="30" as="geometry" />
        </mxCell>
        <mxCell id="rZa_sODycS4ORoVSW2ID-32" style="edgeStyle=orthogonalEdgeStyle;rounded=0;orthogonalLoop=1;jettySize=auto;html=1;exitX=0.5;exitY=1;exitDx=0;exitDy=0;entryX=0.5;entryY=0;entryDx=0;entryDy=0;entryPerimeter=0;" parent="WIyWlLk6GJQsqaUBKTNV-1" source="rZa_sODycS4ORoVSW2ID-13" target="rZa_sODycS4ORoVSW2ID-21" edge="1">
          <mxGeometry relative="1" as="geometry">
            <Array as="points">
              <mxPoint x="480" y="170" />
              <mxPoint x="365" y="170" />
            </Array>
          </mxGeometry>
        </mxCell>
        <mxCell id="rZa_sODycS4ORoVSW2ID-33" style="edgeStyle=orthogonalEdgeStyle;rounded=0;orthogonalLoop=1;jettySize=auto;html=1;exitX=0.5;exitY=1;exitDx=0;exitDy=0;entryX=0.5;entryY=0;entryDx=0;entryDy=0;entryPerimeter=0;" parent="WIyWlLk6GJQsqaUBKTNV-1" source="rZa_sODycS4ORoVSW2ID-13" target="rZa_sODycS4ORoVSW2ID-22" edge="1">
          <mxGeometry relative="1" as="geometry">
            <mxPoint x="540" y="170" as="sourcePoint" />
            <mxPoint x="450" y="270" as="targetPoint" />
            <Array as="points">
              <mxPoint x="480" y="170" />
              <mxPoint x="585" y="170" />
            </Array>
          </mxGeometry>
        </mxCell>
        <mxCell id="rZa_sODycS4ORoVSW2ID-43" style="edgeStyle=orthogonalEdgeStyle;rounded=0;orthogonalLoop=1;jettySize=auto;html=1;exitX=0.5;exitY=1;exitDx=0;exitDy=0;entryX=0;entryY=0.5;entryDx=0;entryDy=0;" parent="WIyWlLk6GJQsqaUBKTNV-1" source="rZa_sODycS4ORoVSW2ID-41" target="rZa_sODycS4ORoVSW2ID-24" edge="1">
          <mxGeometry relative="1" as="geometry">
            <mxPoint x="210" y="340" as="targetPoint" />
          </mxGeometry>
        </mxCell>
        <mxCell id="rZa_sODycS4ORoVSW2ID-41" value="Calculate \(\mu\) &amp;amp; \(\sigma\)" style="rounded=1;whiteSpace=wrap;html=1;fillColor=#dae8fc;strokeColor=#6c8ebf;" parent="WIyWlLk6GJQsqaUBKTNV-1" vertex="1">
          <mxGeometry x="185" y="187.5" width="120" height="25" as="geometry" />
        </mxCell>
        <mxCell id="rZa_sODycS4ORoVSW2ID-47" style="edgeStyle=orthogonalEdgeStyle;rounded=0;orthogonalLoop=1;jettySize=auto;html=1;entryX=0.185;entryY=-0.007;entryDx=0;entryDy=0;entryPerimeter=0;" parent="WIyWlLk6GJQsqaUBKTNV-1" source="rZa_sODycS4ORoVSW2ID-21" target="rZa_sODycS4ORoVSW2ID-23" edge="1">
          <mxGeometry relative="1" as="geometry" />
        </mxCell>
        <mxCell id="rZa_sODycS4ORoVSW2ID-49" style="edgeStyle=orthogonalEdgeStyle;rounded=0;orthogonalLoop=1;jettySize=auto;html=1;exitX=0.75;exitY=1;exitDx=0;exitDy=0;entryX=0.743;entryY=0.007;entryDx=0;entryDy=0;entryPerimeter=0;" parent="WIyWlLk6GJQsqaUBKTNV-1" edge="1">
          <mxGeometry relative="1" as="geometry">
            <mxPoint x="359.88" y="350" as="sourcePoint" />
            <mxPoint x="359.88" y="370" as="targetPoint" />
          </mxGeometry>
        </mxCell>
        <mxCell id="rZa_sODycS4ORoVSW2ID-51" value="Per Class \(i\): Augmentation up to \(\text{Adjusted_Count}_i\) Samples" style="rounded=1;whiteSpace=wrap;html=1;labelPosition=center;verticalLabelPosition=top;align=center;verticalAlign=bottom;arcSize=6;textDirection=ltr;fillColor=#e1d5e7;strokeColor=#9673a6;" parent="WIyWlLk6GJQsqaUBKTNV-1" vertex="1">
          <mxGeometry x="400" y="460" width="350" height="110" as="geometry" />
        </mxCell>
        <mxCell id="rZa_sODycS4ORoVSW2ID-52" style="edgeStyle=orthogonalEdgeStyle;rounded=0;orthogonalLoop=1;jettySize=auto;html=1;entryX=0;entryY=0.25;entryDx=0;entryDy=0;" parent="WIyWlLk6GJQsqaUBKTNV-1" target="rZa_sODycS4ORoVSW2ID-51" edge="1">
          <mxGeometry relative="1" as="geometry">
            <mxPoint x="361" y="400" as="sourcePoint" />
            <Array as="points">
              <mxPoint x="361" y="488" />
            </Array>
          </mxGeometry>
        </mxCell>
        <mxCell id="rZa_sODycS4ORoVSW2ID-54" style="edgeStyle=orthogonalEdgeStyle;rounded=0;orthogonalLoop=1;jettySize=auto;html=1;entryX=0.815;entryY=-0.02;entryDx=0;entryDy=0;entryPerimeter=0;exitX=0.5;exitY=1;exitDx=0;exitDy=0;exitPerimeter=0;" parent="WIyWlLk6GJQsqaUBKTNV-1" source="rZa_sODycS4ORoVSW2ID-22" target="rZa_sODycS4ORoVSW2ID-23" edge="1">
          <mxGeometry relative="1" as="geometry">
            <mxPoint x="375" y="280" as="sourcePoint" />
            <mxPoint x="375" y="330" as="targetPoint" />
          </mxGeometry>
        </mxCell>
        <mxCell id="rZa_sODycS4ORoVSW2ID-58" value="Random Transform:" style="rounded=1;whiteSpace=wrap;html=1;labelPosition=center;verticalLabelPosition=top;align=center;verticalAlign=bottom;" parent="WIyWlLk6GJQsqaUBKTNV-1" vertex="1">
          <mxGeometry x="415" y="483.75" width="130" height="76.25" as="geometry" />
        </mxCell>
        <mxCell id="rZa_sODycS4ORoVSW2ID-55" value="Flips, Rotations" style="rounded=1;whiteSpace=wrap;html=1;dashed=1;" parent="WIyWlLk6GJQsqaUBKTNV-1" vertex="1">
          <mxGeometry x="430" y="500" width="100" height="20" as="geometry" />
        </mxCell>
        <mxCell id="rZa_sODycS4ORoVSW2ID-57" value="Color Jitter" style="rounded=1;whiteSpace=wrap;html=1;dashed=1;" parent="WIyWlLk6GJQsqaUBKTNV-1" vertex="1">
          <mxGeometry x="430" y="525" width="100" height="20" as="geometry" />
        </mxCell>
        <mxCell id="rZa_sODycS4ORoVSW2ID-59" value="Per Input Image: Synthetic Samples capped at \(\text{MAX_AUGMENT}\)" style="text;html=1;align=center;verticalAlign=middle;whiteSpace=wrap;rounded=0;" parent="WIyWlLk6GJQsqaUBKTNV-1" vertex="1">
          <mxGeometry x="580" y="475" width="140" height="80" as="geometry" />
        </mxCell>
        <mxCell id="rZa_sODycS4ORoVSW2ID-109" style="edgeStyle=orthogonalEdgeStyle;rounded=0;orthogonalLoop=1;jettySize=auto;html=1;entryX=1;entryY=0.5;entryDx=0;entryDy=0;exitX=0.919;exitY=0.995;exitDx=0;exitDy=0;exitPerimeter=0;" parent="WIyWlLk6GJQsqaUBKTNV-1" source="rZa_sODycS4ORoVSW2ID-67" target="rZa_sODycS4ORoVSW2ID-91" edge="1">
          <mxGeometry relative="1" as="geometry">
            <Array as="points">
              <mxPoint x="1014" y="910" />
            </Array>
            <mxPoint x="1070" y="160" as="sourcePoint" />
          </mxGeometry>
        </mxCell>
        <mxCell id="rZa_sODycS4ORoVSW2ID-67" value="Classification Model Training &amp;amp; Eval" style="rounded=1;whiteSpace=wrap;html=1;labelPosition=center;verticalLabelPosition=top;align=center;verticalAlign=bottom;arcSize=6;textDirection=ltr;fillColor=#ADADAD;" parent="WIyWlLk6GJQsqaUBKTNV-1" vertex="1">
          <mxGeometry x="720" y="-12.5" width="320" height="207.5" as="geometry" />
        </mxCell>
        <mxCell id="rZa_sODycS4ORoVSW2ID-85" style="edgeStyle=orthogonalEdgeStyle;rounded=0;orthogonalLoop=1;jettySize=auto;html=1;exitX=0.5;exitY=0;exitDx=0;exitDy=0;exitPerimeter=0;entryX=0.5;entryY=1;entryDx=0;entryDy=0;" parent="WIyWlLk6GJQsqaUBKTNV-1" source="rZa_sODycS4ORoVSW2ID-60" target="rZa_sODycS4ORoVSW2ID-79" edge="1">
          <mxGeometry relative="1" as="geometry" />
        </mxCell>
        <mxCell id="rZa_sODycS4ORoVSW2ID-60" value="Test" style="shape=cylinder3;whiteSpace=wrap;html=1;boundedLbl=1;backgroundOutline=1;size=15;fillColor=#D5E8D4;strokeColor=#82B366;" parent="WIyWlLk6GJQsqaUBKTNV-1" vertex="1">
          <mxGeometry x="930" y="235" width="60" height="80" as="geometry" />
        </mxCell>
        <mxCell id="rZa_sODycS4ORoVSW2ID-80" style="edgeStyle=orthogonalEdgeStyle;rounded=0;orthogonalLoop=1;jettySize=auto;html=1;exitX=0.5;exitY=0;exitDx=0;exitDy=0;exitPerimeter=0;entryX=0.25;entryY=1;entryDx=0;entryDy=0;" parent="WIyWlLk6GJQsqaUBKTNV-1" source="rZa_sODycS4ORoVSW2ID-61" target="rZa_sODycS4ORoVSW2ID-77" edge="1">
          <mxGeometry relative="1" as="geometry" />
        </mxCell>
        <mxCell id="rZa_sODycS4ORoVSW2ID-61" value="Val" style="shape=cylinder3;whiteSpace=wrap;html=1;boundedLbl=1;backgroundOutline=1;size=15;fillColor=#f8cecc;strokeColor=#b85450;" parent="WIyWlLk6GJQsqaUBKTNV-1" vertex="1">
          <mxGeometry x="720" y="235" width="60" height="80" as="geometry" />
        </mxCell>
        <mxCell id="rZa_sODycS4ORoVSW2ID-63" value="50/50 test/val split" style="rounded=1;whiteSpace=wrap;html=1;fillColor=#D5E8D4;strokeColor=#1F1F1F;gradientColor=#F8CECC;gradientDirection=west;" parent="WIyWlLk6GJQsqaUBKTNV-1" vertex="1">
          <mxGeometry x="690" y="375" width="120" height="35" as="geometry" />
        </mxCell>
        <mxCell id="rZa_sODycS4ORoVSW2ID-64" style="edgeStyle=orthogonalEdgeStyle;rounded=0;orthogonalLoop=1;jettySize=auto;html=1;exitX=1;exitY=0.5;exitDx=0;exitDy=0;entryX=0.5;entryY=1;entryDx=0;entryDy=0;entryPerimeter=0;" parent="WIyWlLk6GJQsqaUBKTNV-1" source="rZa_sODycS4ORoVSW2ID-63" target="rZa_sODycS4ORoVSW2ID-60" edge="1">
          <mxGeometry relative="1" as="geometry">
            <Array as="points">
              <mxPoint x="810" y="390" />
              <mxPoint x="960" y="390" />
            </Array>
          </mxGeometry>
        </mxCell>
        <mxCell id="rZa_sODycS4ORoVSW2ID-65" style="edgeStyle=orthogonalEdgeStyle;rounded=0;orthogonalLoop=1;jettySize=auto;html=1;exitX=0.5;exitY=0;exitDx=0;exitDy=0;entryX=0.5;entryY=1;entryDx=0;entryDy=0;entryPerimeter=0;" parent="WIyWlLk6GJQsqaUBKTNV-1" source="rZa_sODycS4ORoVSW2ID-63" target="rZa_sODycS4ORoVSW2ID-61" edge="1">
          <mxGeometry relative="1" as="geometry" />
        </mxCell>
        <mxCell id="rZa_sODycS4ORoVSW2ID-84" style="edgeStyle=orthogonalEdgeStyle;rounded=0;orthogonalLoop=1;jettySize=auto;html=1;exitX=1;exitY=0.5;exitDx=0;exitDy=0;entryX=0;entryY=0.5;entryDx=0;entryDy=0;" parent="WIyWlLk6GJQsqaUBKTNV-1" source="rZa_sODycS4ORoVSW2ID-77" target="rZa_sODycS4ORoVSW2ID-79" edge="1">
          <mxGeometry relative="1" as="geometry" />
        </mxCell>
        <mxCell id="rZa_sODycS4ORoVSW2ID-77" value="Train different Models" style="rounded=1;whiteSpace=wrap;html=1;labelPosition=center;verticalLabelPosition=top;align=left;verticalAlign=bottom;fillStyle=auto;fillColor=#f5f5f5;fontColor=#333333;strokeColor=#666666;" parent="WIyWlLk6GJQsqaUBKTNV-1" vertex="1">
          <mxGeometry x="730" y="17.5" width="140" height="170" as="geometry" />
        </mxCell>
        <mxCell id="rZa_sODycS4ORoVSW2ID-68" value="&lt;div&gt;Custom CNN:&amp;nbsp;&lt;/div&gt;&lt;div&gt;From Scratch&lt;/div&gt;" style="rounded=1;whiteSpace=wrap;html=1;dashed=1;" parent="WIyWlLk6GJQsqaUBKTNV-1" vertex="1">
          <mxGeometry x="740" y="32.5" width="120" height="40" as="geometry" />
        </mxCell>
        <mxCell id="rZa_sODycS4ORoVSW2ID-69" value="VGG19: Finetuning" style="rounded=1;whiteSpace=wrap;html=1;dashed=1;" parent="WIyWlLk6GJQsqaUBKTNV-1" vertex="1">
          <mxGeometry x="740" y="82.5" width="120" height="40" as="geometry" />
        </mxCell>
        <mxCell id="rZa_sODycS4ORoVSW2ID-70" value="ViT: Finetuning" style="rounded=1;whiteSpace=wrap;html=1;dashed=1;" parent="WIyWlLk6GJQsqaUBKTNV-1" vertex="1">
          <mxGeometry x="740" y="132.5" width="120" height="40" as="geometry" />
        </mxCell>
        <mxCell id="rZa_sODycS4ORoVSW2ID-81" style="edgeStyle=orthogonalEdgeStyle;rounded=0;orthogonalLoop=1;jettySize=auto;html=1;exitX=0.5;exitY=0;exitDx=0;exitDy=0;exitPerimeter=0;entryX=0.65;entryY=0.997;entryDx=0;entryDy=0;entryPerimeter=0;" parent="WIyWlLk6GJQsqaUBKTNV-1" source="rZa_sODycS4ORoVSW2ID-71" target="rZa_sODycS4ORoVSW2ID-77" edge="1">
          <mxGeometry relative="1" as="geometry" />
        </mxCell>
        <mxCell id="rZa_sODycS4ORoVSW2ID-71" value="Augmented Train" style="shape=cylinder3;whiteSpace=wrap;html=1;boundedLbl=1;backgroundOutline=1;size=15;fillColor=#e1d5e7;strokeColor=#9673a6;" parent="WIyWlLk6GJQsqaUBKTNV-1" vertex="1">
          <mxGeometry x="790" y="230" width="90" height="90" as="geometry" />
        </mxCell>
        <mxCell id="rZa_sODycS4ORoVSW2ID-72" style="edgeStyle=orthogonalEdgeStyle;rounded=0;orthogonalLoop=1;jettySize=auto;html=1;exitX=1;exitY=0.5;exitDx=0;exitDy=0;entryX=0.5;entryY=1;entryDx=0;entryDy=0;entryPerimeter=0;" parent="WIyWlLk6GJQsqaUBKTNV-1" source="rZa_sODycS4ORoVSW2ID-51" target="rZa_sODycS4ORoVSW2ID-71" edge="1">
          <mxGeometry relative="1" as="geometry">
            <Array as="points">
              <mxPoint x="835" y="515" />
            </Array>
          </mxGeometry>
        </mxCell>
        <mxCell id="rZa_sODycS4ORoVSW2ID-89" style="edgeStyle=orthogonalEdgeStyle;rounded=0;orthogonalLoop=1;jettySize=auto;html=1;exitX=0.5;exitY=1;exitDx=0;exitDy=0;entryX=0.25;entryY=0;entryDx=0;entryDy=0;exitPerimeter=0;" parent="WIyWlLk6GJQsqaUBKTNV-1" source="YSozYTVfxayiFDIovwCb-1" target="rZa_sODycS4ORoVSW2ID-12" edge="1">
          <mxGeometry relative="1" as="geometry">
            <Array as="points">
              <mxPoint x="395" y="-170" />
            </Array>
            <mxPoint x="310" y="-45" as="targetPoint" />
          </mxGeometry>
        </mxCell>
        <mxCell id="rZa_sODycS4ORoVSW2ID-117" style="edgeStyle=orthogonalEdgeStyle;rounded=0;orthogonalLoop=1;jettySize=auto;html=1;entryX=0.25;entryY=1;entryDx=0;entryDy=0;exitX=1;exitY=0;exitDx=0;exitDy=60;exitPerimeter=0;" parent="WIyWlLk6GJQsqaUBKTNV-1" source="YSozYTVfxayiFDIovwCb-1" target="rZa_sODycS4ORoVSW2ID-106" edge="1">
          <mxGeometry relative="1" as="geometry">
            <Array as="points">
              <mxPoint x="448" y="-140" />
              <mxPoint x="1050" y="-140" />
              <mxPoint x="1050" y="960" />
              <mxPoint x="384" y="960" />
            </Array>
            <mxPoint x="665" y="-225" as="sourcePoint" />
          </mxGeometry>
        </mxCell>
        <mxCell id="rZa_sODycS4ORoVSW2ID-118" value="5) grabs random class image of raw dataset" style="edgeLabel;html=1;align=center;verticalAlign=middle;resizable=0;points=[];" parent="rZa_sODycS4ORoVSW2ID-117" vertex="1" connectable="0">
          <mxGeometry x="0.398" y="4" relative="1" as="geometry">
            <mxPoint x="-494" y="-4" as="offset" />
          </mxGeometry>
        </mxCell>
        <mxCell id="rZa_sODycS4ORoVSW2ID-79" value="Evaluation" style="rounded=1;whiteSpace=wrap;html=1;labelPosition=center;verticalLabelPosition=top;align=left;verticalAlign=bottom;fillColor=#f5f5f5;fontColor=#333333;strokeColor=#666666;" parent="WIyWlLk6GJQsqaUBKTNV-1" vertex="1">
          <mxGeometry x="890" y="17.5" width="140" height="170" as="geometry" />
        </mxCell>
        <mxCell id="rZa_sODycS4ORoVSW2ID-82" value="&lt;div&gt;Possible Class Imbalance:&amp;nbsp;&lt;/div&gt;&lt;div&gt;Weighted F1 Score&lt;/div&gt;" style="rounded=1;whiteSpace=wrap;html=1;dashed=1;" parent="WIyWlLk6GJQsqaUBKTNV-1" vertex="1">
          <mxGeometry x="900" y="32.5" width="120" height="60" as="geometry" />
        </mxCell>
        <mxCell id="rZa_sODycS4ORoVSW2ID-83" value="Many similar looking Mushrooms: Top-K Accuracy" style="rounded=1;whiteSpace=wrap;html=1;dashed=1;" parent="WIyWlLk6GJQsqaUBKTNV-1" vertex="1">
          <mxGeometry x="900" y="112.5" width="120" height="60" as="geometry" />
        </mxCell>
        <mxCell id="rZa_sODycS4ORoVSW2ID-91" value="Best Performing Model Instance" style="rounded=1;whiteSpace=wrap;html=1;" parent="WIyWlLk6GJQsqaUBKTNV-1" vertex="1">
          <mxGeometry x="545" y="880" width="120" height="60" as="geometry" />
        </mxCell>
        <mxCell id="rZa_sODycS4ORoVSW2ID-104" value="Frontend" style="rounded=1;whiteSpace=wrap;html=1;labelPosition=center;verticalLabelPosition=top;align=center;verticalAlign=bottom;fillColor=#ffe6cc;strokeColor=#d79b00;" parent="WIyWlLk6GJQsqaUBKTNV-1" vertex="1">
          <mxGeometry x="210" y="610" width="500" height="100" as="geometry" />
        </mxCell>
        <mxCell id="rZa_sODycS4ORoVSW2ID-107" style="edgeStyle=orthogonalEdgeStyle;rounded=0;orthogonalLoop=1;jettySize=auto;html=1;exitX=0.5;exitY=1;exitDx=0;exitDy=0;entryX=0;entryY=0.5;entryDx=0;entryDy=0;" parent="WIyWlLk6GJQsqaUBKTNV-1" source="rZa_sODycS4ORoVSW2ID-105" target="rZa_sODycS4ORoVSW2ID-106" edge="1">
          <mxGeometry relative="1" as="geometry" />
        </mxCell>
        <mxCell id="rZa_sODycS4ORoVSW2ID-108" value="1) receives img" style="edgeLabel;html=1;align=center;verticalAlign=middle;resizable=0;points=[];" parent="rZa_sODycS4ORoVSW2ID-107" vertex="1" connectable="0">
          <mxGeometry x="-0.0795" relative="1" as="geometry">
            <mxPoint x="-20" y="27" as="offset" />
          </mxGeometry>
        </mxCell>
        <mxCell id="rZa_sODycS4ORoVSW2ID-105" value="User Uploads Mushroom Image" style="rounded=1;whiteSpace=wrap;html=1;" parent="WIyWlLk6GJQsqaUBKTNV-1" vertex="1">
          <mxGeometry x="230" y="630" width="120" height="60" as="geometry" />
        </mxCell>
        <mxCell id="rZa_sODycS4ORoVSW2ID-115" style="edgeStyle=orthogonalEdgeStyle;rounded=0;orthogonalLoop=1;jettySize=auto;html=1;exitX=1;exitY=0.25;exitDx=0;exitDy=0;entryX=0;entryY=0.5;entryDx=0;entryDy=0;endArrow=none;endFill=0;startArrow=classic;startFill=1;" parent="WIyWlLk6GJQsqaUBKTNV-1" source="rZa_sODycS4ORoVSW2ID-106" target="rZa_sODycS4ORoVSW2ID-6" edge="1">
          <mxGeometry relative="1" as="geometry" />
        </mxCell>
        <mxCell id="rZa_sODycS4ORoVSW2ID-116" value="4) scrapes mushroom data for &lt;br&gt;&lt;div&gt;Top-N Predictions&lt;/div&gt;" style="edgeLabel;html=1;align=center;verticalAlign=middle;resizable=0;points=[];" parent="rZa_sODycS4ORoVSW2ID-115" vertex="1" connectable="0">
          <mxGeometry x="-0.2769" y="-4" relative="1" as="geometry">
            <mxPoint x="10" y="-39" as="offset" />
          </mxGeometry>
        </mxCell>
        <mxCell id="rZa_sODycS4ORoVSW2ID-119" style="edgeStyle=orthogonalEdgeStyle;rounded=0;orthogonalLoop=1;jettySize=auto;html=1;exitX=0;exitY=0.25;exitDx=0;exitDy=0;entryX=0.75;entryY=1;entryDx=0;entryDy=0;" parent="WIyWlLk6GJQsqaUBKTNV-1" source="rZa_sODycS4ORoVSW2ID-106" target="rZa_sODycS4ORoVSW2ID-105" edge="1">
          <mxGeometry relative="1" as="geometry" />
        </mxCell>
        <mxCell id="rZa_sODycS4ORoVSW2ID-120" value="&lt;div&gt;6) returns:&lt;/div&gt;&lt;div&gt;- Top-N Predictions with Confidence Scores&lt;br&gt;&lt;/div&gt;&lt;div&gt;- Wikipedia Mushroom Infos&lt;/div&gt;&lt;div&gt;- Images for Top-N Mushrooms&lt;br&gt;&lt;/div&gt;" style="edgeLabel;html=1;align=center;verticalAlign=middle;resizable=0;points=[];" parent="rZa_sODycS4ORoVSW2ID-119" vertex="1" connectable="0">
          <mxGeometry x="0.482" y="1" relative="1" as="geometry">
            <mxPoint x="95" y="34" as="offset" />
          </mxGeometry>
        </mxCell>
        <mxCell id="YSozYTVfxayiFDIovwCb-5" style="edgeStyle=orthogonalEdgeStyle;rounded=0;orthogonalLoop=1;jettySize=auto;html=1;exitX=0.5;exitY=1;exitDx=0;exitDy=0;entryX=0;entryY=0.5;entryDx=0;entryDy=0;startArrow=classic;startFill=1;" parent="WIyWlLk6GJQsqaUBKTNV-1" source="rZa_sODycS4ORoVSW2ID-106" target="rZa_sODycS4ORoVSW2ID-91" edge="1">
          <mxGeometry relative="1" as="geometry" />
        </mxCell>
        <mxCell id="YSozYTVfxayiFDIovwCb-6" value="&lt;div&gt;3) inference&lt;/div&gt;" style="edgeLabel;html=1;align=center;verticalAlign=middle;resizable=0;points=[];" parent="YSozYTVfxayiFDIovwCb-5" vertex="1" connectable="0">
          <mxGeometry x="-0.1466" y="-4" relative="1" as="geometry">
            <mxPoint x="9" y="-4" as="offset" />
          </mxGeometry>
        </mxCell>
        <mxCell id="rZa_sODycS4ORoVSW2ID-106" value="API" style="rounded=1;whiteSpace=wrap;html=1;" parent="WIyWlLk6GJQsqaUBKTNV-1" vertex="1">
          <mxGeometry x="354" y="820" width="120" height="60" as="geometry" />
        </mxCell>
        <mxCell id="rZa_sODycS4ORoVSW2ID-121" value="Human-in-the-Loop: Some Mushrooms look closely similar, so Users should be the final, deciding factor by comparing returned class images with input." style="text;html=1;align=center;verticalAlign=middle;whiteSpace=wrap;rounded=0;" parent="WIyWlLk6GJQsqaUBKTNV-1" vertex="1">
          <mxGeometry x="360" y="630" width="330" height="60" as="geometry" />
        </mxCell>
        <mxCell id="YSozYTVfxayiFDIovwCb-4" style="edgeStyle=orthogonalEdgeStyle;rounded=0;orthogonalLoop=1;jettySize=auto;html=1;entryX=0.5;entryY=0;entryDx=0;entryDy=0;exitX=0;exitY=0;exitDx=0;exitDy=60;exitPerimeter=0;" parent="WIyWlLk6GJQsqaUBKTNV-1" source="YSozYTVfxayiFDIovwCb-1" target="rZa_sODycS4ORoVSW2ID-41" edge="1">
          <mxGeometry relative="1" as="geometry">
            <mxPoint x="200" y="-230" as="sourcePoint" />
            <Array as="points">
              <mxPoint x="338" y="-140" />
              <mxPoint x="245" y="-140" />
            </Array>
          </mxGeometry>
        </mxCell>
        <mxCell id="YSozYTVfxayiFDIovwCb-1" value="&lt;div&gt;Scrape Dataset:&lt;/div&gt;&lt;div&gt;~50k Images, 43 classes&lt;br&gt;&lt;/div&gt;" style="shape=cylinder3;whiteSpace=wrap;html=1;boundedLbl=1;backgroundOutline=1;size=15;" parent="WIyWlLk6GJQsqaUBKTNV-1" vertex="1">
          <mxGeometry x="337.5" y="-190" width="110" height="90" as="geometry" />
        </mxCell>
        <mxCell id="YSozYTVfxayiFDIovwCb-8" style="edgeStyle=orthogonalEdgeStyle;rounded=0;orthogonalLoop=1;jettySize=auto;html=1;exitX=0;exitY=0.75;exitDx=0;exitDy=0;entryX=0.081;entryY=0.999;entryDx=0;entryDy=0;startArrow=classic;startFill=1;entryPerimeter=0;" parent="WIyWlLk6GJQsqaUBKTNV-1" source="rZa_sODycS4ORoVSW2ID-106" target="rZa_sODycS4ORoVSW2ID-20" edge="1">
          <mxGeometry relative="1" as="geometry">
            <Array as="points">
              <mxPoint x="180" y="865" />
              <mxPoint x="180" y="490" />
              <mxPoint x="320" y="490" />
            </Array>
          </mxGeometry>
        </mxCell>
        <mxCell id="YSozYTVfxayiFDIovwCb-9" value="&lt;div&gt;2) applies preprocessing steps&lt;/div&gt;" style="edgeLabel;html=1;align=center;verticalAlign=middle;resizable=0;points=[];" parent="YSozYTVfxayiFDIovwCb-8" vertex="1" connectable="0">
          <mxGeometry x="-0.7391" y="3" relative="1" as="geometry">
            <mxPoint x="6" as="offset" />
          </mxGeometry>
        </mxCell>
        <mxCell id="rZa_sODycS4ORoVSW2ID-86" style="edgeStyle=orthogonalEdgeStyle;rounded=0;orthogonalLoop=1;jettySize=auto;html=1;exitX=1;exitY=0.75;exitDx=0;exitDy=0;entryX=0;entryY=0.5;entryDx=0;entryDy=0;" parent="WIyWlLk6GJQsqaUBKTNV-1" source="rZa_sODycS4ORoVSW2ID-24" target="rZa_sODycS4ORoVSW2ID-63" edge="1">
          <mxGeometry relative="1" as="geometry">
            <Array as="points">
              <mxPoint x="690" y="393" />
              <mxPoint x="690" y="393" />
            </Array>
          </mxGeometry>
        </mxCell>
      </root>
    </mxGraphModel>
  </diagram>
</mxfile>
